<mxfile host="app.diagrams.net" agent="Mozilla/5.0 (Windows NT 10.0; Win64; x64) AppleWebKit/537.36 (KHTML, like Gecko) Chrome/140.0.0.0 Safari/537.36" version="28.2.3">
  <diagram name="Page-1" id="gamRS6MLA4fs2B-uqD5Q">
    <mxGraphModel dx="2017" dy="1041" grid="1" gridSize="10" guides="1" tooltips="1" connect="1" arrows="1" fold="1" page="1" pageScale="1" pageWidth="850" pageHeight="1100" math="0" shadow="0">
      <root>
        <mxCell id="0" />
        <mxCell id="1" parent="0" />
        <mxCell id="qD9gXsYjsShy9WRek7qx-5" style="edgeStyle=orthogonalEdgeStyle;rounded=0;orthogonalLoop=1;jettySize=auto;html=1;exitX=0.5;exitY=1;exitDx=0;exitDy=0;entryX=0.5;entryY=0;entryDx=0;entryDy=0;" parent="1" source="sVo8eWBov2D_V9g_eI1e-1" target="qD9gXsYjsShy9WRek7qx-1" edge="1">
          <mxGeometry relative="1" as="geometry" />
        </mxCell>
        <mxCell id="sVo8eWBov2D_V9g_eI1e-1" value="Inicio" style="rounded=1;whiteSpace=wrap;html=1;" parent="1" vertex="1">
          <mxGeometry x="321" y="70" width="80" height="30" as="geometry" />
        </mxCell>
        <mxCell id="sVo8eWBov2D_V9g_eI1e-14" value="&lt;font style=&quot;font-size: 20px;&quot;&gt;&lt;b&gt;Dibujar cuadrado hueco&lt;/b&gt;&lt;/font&gt;" style="text;html=1;align=center;verticalAlign=middle;whiteSpace=wrap;rounded=0;" parent="1" vertex="1">
          <mxGeometry x="40" y="20" width="660" height="30" as="geometry" />
        </mxCell>
        <mxCell id="fhB60b2QltupWCeUgBXA-7" style="edgeStyle=orthogonalEdgeStyle;rounded=0;orthogonalLoop=1;jettySize=auto;html=1;exitX=0.5;exitY=1;exitDx=0;exitDy=0;entryX=0.5;entryY=0;entryDx=0;entryDy=0;" parent="1" source="qD9gXsYjsShy9WRek7qx-1" target="1DBd2BPeQqENHKHgenye-1" edge="1">
          <mxGeometry relative="1" as="geometry" />
        </mxCell>
        <mxCell id="qD9gXsYjsShy9WRek7qx-1" value="Leer lado" style="rounded=0;whiteSpace=wrap;html=1;" parent="1" vertex="1">
          <mxGeometry x="303" y="142" width="116" height="40" as="geometry" />
        </mxCell>
        <mxCell id="1DBd2BPeQqENHKHgenye-58" style="edgeStyle=orthogonalEdgeStyle;rounded=0;orthogonalLoop=1;jettySize=auto;html=1;exitX=0;exitY=0.5;exitDx=0;exitDy=0;" edge="1" parent="1" source="fhB60b2QltupWCeUgBXA-1">
          <mxGeometry relative="1" as="geometry">
            <mxPoint x="360" y="360" as="targetPoint" />
            <Array as="points">
              <mxPoint x="60" y="976" />
              <mxPoint x="60" y="360" />
            </Array>
          </mxGeometry>
        </mxCell>
        <mxCell id="fhB60b2QltupWCeUgBXA-1" value="fila = fila +1" style="rounded=0;whiteSpace=wrap;html=1;" parent="1" vertex="1">
          <mxGeometry x="398" y="954" width="179" height="43" as="geometry" />
        </mxCell>
        <mxCell id="1DBd2BPeQqENHKHgenye-3" style="edgeStyle=orthogonalEdgeStyle;rounded=0;orthogonalLoop=1;jettySize=auto;html=1;exitX=1;exitY=0.5;exitDx=0;exitDy=0;entryX=0;entryY=0.5;entryDx=0;entryDy=0;" edge="1" parent="1" source="1DBd2BPeQqENHKHgenye-1" target="1DBd2BPeQqENHKHgenye-2">
          <mxGeometry relative="1" as="geometry" />
        </mxCell>
        <mxCell id="1DBd2BPeQqENHKHgenye-7" style="edgeStyle=orthogonalEdgeStyle;rounded=0;orthogonalLoop=1;jettySize=auto;html=1;exitX=0.5;exitY=1;exitDx=0;exitDy=0;entryX=0.5;entryY=0;entryDx=0;entryDy=0;" edge="1" parent="1" source="1DBd2BPeQqENHKHgenye-1" target="1DBd2BPeQqENHKHgenye-5">
          <mxGeometry relative="1" as="geometry" />
        </mxCell>
        <mxCell id="1DBd2BPeQqENHKHgenye-1" value="lado&amp;gt;2" style="rhombus;whiteSpace=wrap;html=1;" vertex="1" parent="1">
          <mxGeometry x="321" y="212" width="80" height="80" as="geometry" />
        </mxCell>
        <mxCell id="1DBd2BPeQqENHKHgenye-4" style="edgeStyle=orthogonalEdgeStyle;rounded=0;orthogonalLoop=1;jettySize=auto;html=1;exitX=0.5;exitY=0;exitDx=0;exitDy=0;" edge="1" parent="1" source="1DBd2BPeQqENHKHgenye-2">
          <mxGeometry relative="1" as="geometry">
            <mxPoint x="360" y="110" as="targetPoint" />
            <Array as="points">
              <mxPoint x="560" y="110" />
            </Array>
          </mxGeometry>
        </mxCell>
        <mxCell id="1DBd2BPeQqENHKHgenye-2" value="Mensaje: &quot;el lado tiene que ser &amp;gt;2&quot;" style="rounded=0;whiteSpace=wrap;html=1;" vertex="1" parent="1">
          <mxGeometry x="500" y="222" width="120" height="60" as="geometry" />
        </mxCell>
        <mxCell id="1DBd2BPeQqENHKHgenye-18" style="edgeStyle=orthogonalEdgeStyle;rounded=0;orthogonalLoop=1;jettySize=auto;html=1;exitX=0.5;exitY=1;exitDx=0;exitDy=0;entryX=0.5;entryY=0;entryDx=0;entryDy=0;" edge="1" parent="1" source="1DBd2BPeQqENHKHgenye-5" target="1DBd2BPeQqENHKHgenye-17">
          <mxGeometry relative="1" as="geometry" />
        </mxCell>
        <mxCell id="1DBd2BPeQqENHKHgenye-5" value="fila = 1" style="rounded=0;whiteSpace=wrap;html=1;" vertex="1" parent="1">
          <mxGeometry x="301" y="314" width="120" height="30" as="geometry" />
        </mxCell>
        <mxCell id="1DBd2BPeQqENHKHgenye-10" style="edgeStyle=orthogonalEdgeStyle;rounded=0;orthogonalLoop=1;jettySize=auto;html=1;exitX=1;exitY=0.5;exitDx=0;exitDy=0;entryX=0.5;entryY=0;entryDx=0;entryDy=0;" edge="1" parent="1" source="1DBd2BPeQqENHKHgenye-6" target="1DBd2BPeQqENHKHgenye-27">
          <mxGeometry relative="1" as="geometry">
            <mxPoint x="565" y="574" as="targetPoint" />
          </mxGeometry>
        </mxCell>
        <mxCell id="1DBd2BPeQqENHKHgenye-14" style="edgeStyle=orthogonalEdgeStyle;rounded=0;orthogonalLoop=1;jettySize=auto;html=1;exitX=0;exitY=0.5;exitDx=0;exitDy=0;entryX=0.5;entryY=0;entryDx=0;entryDy=0;" edge="1" parent="1" source="1DBd2BPeQqENHKHgenye-6" target="1DBd2BPeQqENHKHgenye-37">
          <mxGeometry relative="1" as="geometry">
            <mxPoint x="175" y="576" as="targetPoint" />
          </mxGeometry>
        </mxCell>
        <mxCell id="1DBd2BPeQqENHKHgenye-6" value="fila =1 or fila = lado" style="rhombus;whiteSpace=wrap;html=1;" vertex="1" parent="1">
          <mxGeometry x="286.5" y="486" width="150" height="80" as="geometry" />
        </mxCell>
        <mxCell id="1DBd2BPeQqENHKHgenye-11" value="Si" style="text;html=1;align=center;verticalAlign=middle;resizable=0;points=[];autosize=1;strokeColor=none;fillColor=none;" vertex="1" parent="1">
          <mxGeometry x="440.5" y="504" width="30" height="30" as="geometry" />
        </mxCell>
        <mxCell id="1DBd2BPeQqENHKHgenye-16" value="No" style="text;html=1;align=center;verticalAlign=middle;resizable=0;points=[];autosize=1;strokeColor=none;fillColor=none;" vertex="1" parent="1">
          <mxGeometry x="255.5" y="496" width="40" height="30" as="geometry" />
        </mxCell>
        <mxCell id="1DBd2BPeQqENHKHgenye-19" style="edgeStyle=orthogonalEdgeStyle;rounded=0;orthogonalLoop=1;jettySize=auto;html=1;exitX=0.5;exitY=1;exitDx=0;exitDy=0;entryX=0.5;entryY=0;entryDx=0;entryDy=0;" edge="1" parent="1" source="1DBd2BPeQqENHKHgenye-17" target="1DBd2BPeQqENHKHgenye-6">
          <mxGeometry relative="1" as="geometry" />
        </mxCell>
        <mxCell id="1DBd2BPeQqENHKHgenye-21" style="edgeStyle=orthogonalEdgeStyle;rounded=0;orthogonalLoop=1;jettySize=auto;html=1;exitX=1;exitY=0.5;exitDx=0;exitDy=0;entryX=0.5;entryY=0;entryDx=0;entryDy=0;" edge="1" parent="1" source="1DBd2BPeQqENHKHgenye-17" target="1DBd2BPeQqENHKHgenye-20">
          <mxGeometry relative="1" as="geometry" />
        </mxCell>
        <mxCell id="1DBd2BPeQqENHKHgenye-17" value="fila &amp;gt; lado" style="rhombus;whiteSpace=wrap;html=1;" vertex="1" parent="1">
          <mxGeometry x="306.25" y="383" width="109.5" height="80" as="geometry" />
        </mxCell>
        <mxCell id="1DBd2BPeQqENHKHgenye-20" value="Fin" style="rounded=1;whiteSpace=wrap;html=1;" vertex="1" parent="1">
          <mxGeometry x="720" y="970" width="65.5" height="30" as="geometry" />
        </mxCell>
        <mxCell id="1DBd2BPeQqENHKHgenye-22" value="Si" style="text;html=1;align=center;verticalAlign=middle;resizable=0;points=[];autosize=1;strokeColor=none;fillColor=none;" vertex="1" parent="1">
          <mxGeometry x="415" y="391" width="30" height="30" as="geometry" />
        </mxCell>
        <mxCell id="1DBd2BPeQqENHKHgenye-23" value="No" style="text;html=1;align=center;verticalAlign=middle;resizable=0;points=[];autosize=1;strokeColor=none;fillColor=none;" vertex="1" parent="1">
          <mxGeometry x="360" y="452" width="40" height="30" as="geometry" />
        </mxCell>
        <mxCell id="1DBd2BPeQqENHKHgenye-29" style="edgeStyle=orthogonalEdgeStyle;rounded=0;orthogonalLoop=1;jettySize=auto;html=1;exitX=0.5;exitY=1;exitDx=0;exitDy=0;entryX=0.5;entryY=0;entryDx=0;entryDy=0;" edge="1" parent="1" source="1DBd2BPeQqENHKHgenye-27" target="1DBd2BPeQqENHKHgenye-28">
          <mxGeometry relative="1" as="geometry" />
        </mxCell>
        <mxCell id="1DBd2BPeQqENHKHgenye-27" value="col = 1" style="rounded=0;whiteSpace=wrap;html=1;" vertex="1" parent="1">
          <mxGeometry x="563" y="562" width="80" height="30" as="geometry" />
        </mxCell>
        <mxCell id="1DBd2BPeQqENHKHgenye-32" style="edgeStyle=orthogonalEdgeStyle;rounded=0;orthogonalLoop=1;jettySize=auto;html=1;exitX=0.5;exitY=1;exitDx=0;exitDy=0;entryX=0.5;entryY=0;entryDx=0;entryDy=0;" edge="1" parent="1" source="1DBd2BPeQqENHKHgenye-28" target="1DBd2BPeQqENHKHgenye-30">
          <mxGeometry relative="1" as="geometry" />
        </mxCell>
        <mxCell id="1DBd2BPeQqENHKHgenye-28" value="col &amp;gt; lado" style="rhombus;whiteSpace=wrap;html=1;" vertex="1" parent="1">
          <mxGeometry x="563" y="631" width="80" height="65" as="geometry" />
        </mxCell>
        <mxCell id="1DBd2BPeQqENHKHgenye-33" style="edgeStyle=orthogonalEdgeStyle;rounded=0;orthogonalLoop=1;jettySize=auto;html=1;exitX=0.5;exitY=1;exitDx=0;exitDy=0;entryX=0.5;entryY=0;entryDx=0;entryDy=0;" edge="1" parent="1" source="1DBd2BPeQqENHKHgenye-30" target="1DBd2BPeQqENHKHgenye-31">
          <mxGeometry relative="1" as="geometry" />
        </mxCell>
        <mxCell id="1DBd2BPeQqENHKHgenye-30" value="pinta caracter" style="rounded=0;whiteSpace=wrap;html=1;" vertex="1" parent="1">
          <mxGeometry x="543" y="732" width="120" height="30" as="geometry" />
        </mxCell>
        <mxCell id="1DBd2BPeQqENHKHgenye-34" style="edgeStyle=orthogonalEdgeStyle;rounded=0;orthogonalLoop=1;jettySize=auto;html=1;exitX=0.5;exitY=1;exitDx=0;exitDy=0;" edge="1" parent="1" source="1DBd2BPeQqENHKHgenye-31">
          <mxGeometry relative="1" as="geometry">
            <mxPoint x="603" y="606" as="targetPoint" />
            <Array as="points">
              <mxPoint x="603" y="832" />
              <mxPoint x="683" y="832" />
              <mxPoint x="683" y="606" />
            </Array>
          </mxGeometry>
        </mxCell>
        <mxCell id="1DBd2BPeQqENHKHgenye-31" value="col = col + 1" style="rounded=0;whiteSpace=wrap;html=1;" vertex="1" parent="1">
          <mxGeometry x="543" y="782" width="120" height="30" as="geometry" />
        </mxCell>
        <mxCell id="1DBd2BPeQqENHKHgenye-35" value="No" style="text;html=1;align=center;verticalAlign=middle;resizable=0;points=[];autosize=1;strokeColor=none;fillColor=none;" vertex="1" parent="1">
          <mxGeometry x="598" y="686" width="40" height="30" as="geometry" />
        </mxCell>
        <mxCell id="1DBd2BPeQqENHKHgenye-39" style="edgeStyle=orthogonalEdgeStyle;rounded=0;orthogonalLoop=1;jettySize=auto;html=1;exitX=0.5;exitY=1;exitDx=0;exitDy=0;entryX=0.5;entryY=0;entryDx=0;entryDy=0;" edge="1" parent="1" source="1DBd2BPeQqENHKHgenye-37" target="1DBd2BPeQqENHKHgenye-38">
          <mxGeometry relative="1" as="geometry" />
        </mxCell>
        <mxCell id="1DBd2BPeQqENHKHgenye-37" value="col = 1" style="rounded=0;whiteSpace=wrap;html=1;" vertex="1" parent="1">
          <mxGeometry x="160" y="562" width="80" height="30" as="geometry" />
        </mxCell>
        <mxCell id="1DBd2BPeQqENHKHgenye-42" style="edgeStyle=orthogonalEdgeStyle;rounded=0;orthogonalLoop=1;jettySize=auto;html=1;exitX=0.5;exitY=1;exitDx=0;exitDy=0;entryX=0.5;entryY=0;entryDx=0;entryDy=0;" edge="1" parent="1" source="1DBd2BPeQqENHKHgenye-38" target="1DBd2BPeQqENHKHgenye-41">
          <mxGeometry relative="1" as="geometry" />
        </mxCell>
        <mxCell id="1DBd2BPeQqENHKHgenye-43" value="No" style="edgeLabel;html=1;align=center;verticalAlign=middle;resizable=0;points=[];" vertex="1" connectable="0" parent="1DBd2BPeQqENHKHgenye-42">
          <mxGeometry x="-0.4667" y="5" relative="1" as="geometry">
            <mxPoint as="offset" />
          </mxGeometry>
        </mxCell>
        <mxCell id="1DBd2BPeQqENHKHgenye-53" style="edgeStyle=orthogonalEdgeStyle;rounded=0;orthogonalLoop=1;jettySize=auto;html=1;exitX=1;exitY=0.5;exitDx=0;exitDy=0;entryX=0.332;entryY=-0.093;entryDx=0;entryDy=0;entryPerimeter=0;" edge="1" parent="1" target="fhB60b2QltupWCeUgBXA-1">
          <mxGeometry relative="1" as="geometry">
            <mxPoint x="210" y="653.5" as="sourcePoint" />
            <mxPoint x="457.50000000000045" y="916" as="targetPoint" />
          </mxGeometry>
        </mxCell>
        <mxCell id="1DBd2BPeQqENHKHgenye-38" value="col &amp;gt; lado" style="rhombus;whiteSpace=wrap;html=1;" vertex="1" parent="1">
          <mxGeometry x="160" y="621" width="80" height="65" as="geometry" />
        </mxCell>
        <mxCell id="1DBd2BPeQqENHKHgenye-40" value="Si" style="text;html=1;align=center;verticalAlign=middle;resizable=0;points=[];autosize=1;strokeColor=none;fillColor=none;" vertex="1" parent="1">
          <mxGeometry x="533" y="634" width="30" height="30" as="geometry" />
        </mxCell>
        <mxCell id="1DBd2BPeQqENHKHgenye-45" style="edgeStyle=orthogonalEdgeStyle;rounded=0;orthogonalLoop=1;jettySize=auto;html=1;exitX=0.5;exitY=1;exitDx=0;exitDy=0;entryX=0.5;entryY=0;entryDx=0;entryDy=0;" edge="1" parent="1" source="1DBd2BPeQqENHKHgenye-41" target="1DBd2BPeQqENHKHgenye-44">
          <mxGeometry relative="1" as="geometry" />
        </mxCell>
        <mxCell id="1DBd2BPeQqENHKHgenye-49" value="Si" style="edgeLabel;html=1;align=center;verticalAlign=middle;resizable=0;points=[];" vertex="1" connectable="0" parent="1DBd2BPeQqENHKHgenye-45">
          <mxGeometry x="-0.5385" y="5" relative="1" as="geometry">
            <mxPoint as="offset" />
          </mxGeometry>
        </mxCell>
        <mxCell id="1DBd2BPeQqENHKHgenye-47" style="edgeStyle=orthogonalEdgeStyle;rounded=0;orthogonalLoop=1;jettySize=auto;html=1;exitX=1;exitY=0.5;exitDx=0;exitDy=0;entryX=0;entryY=0.5;entryDx=0;entryDy=0;" edge="1" parent="1" source="1DBd2BPeQqENHKHgenye-41" target="1DBd2BPeQqENHKHgenye-46">
          <mxGeometry relative="1" as="geometry" />
        </mxCell>
        <mxCell id="1DBd2BPeQqENHKHgenye-41" value="col = 1 or col = lado" style="rhombus;whiteSpace=wrap;html=1;" vertex="1" parent="1">
          <mxGeometry x="135" y="716" width="130" height="70" as="geometry" />
        </mxCell>
        <mxCell id="1DBd2BPeQqENHKHgenye-51" style="edgeStyle=orthogonalEdgeStyle;rounded=0;orthogonalLoop=1;jettySize=auto;html=1;exitX=0.5;exitY=1;exitDx=0;exitDy=0;entryX=0.5;entryY=0;entryDx=0;entryDy=0;" edge="1" parent="1" source="1DBd2BPeQqENHKHgenye-44" target="1DBd2BPeQqENHKHgenye-50">
          <mxGeometry relative="1" as="geometry" />
        </mxCell>
        <mxCell id="1DBd2BPeQqENHKHgenye-44" value="pinta caracter" style="rounded=0;whiteSpace=wrap;html=1;" vertex="1" parent="1">
          <mxGeometry x="140" y="812" width="120" height="30" as="geometry" />
        </mxCell>
        <mxCell id="1DBd2BPeQqENHKHgenye-52" style="edgeStyle=orthogonalEdgeStyle;rounded=0;orthogonalLoop=1;jettySize=auto;html=1;exitX=0.5;exitY=1;exitDx=0;exitDy=0;" edge="1" parent="1" source="1DBd2BPeQqENHKHgenye-46">
          <mxGeometry relative="1" as="geometry">
            <mxPoint x="200" y="856" as="targetPoint" />
            <Array as="points">
              <mxPoint x="366" y="856" />
            </Array>
          </mxGeometry>
        </mxCell>
        <mxCell id="1DBd2BPeQqENHKHgenye-46" value="pinta espacio (hueco)" style="rounded=0;whiteSpace=wrap;html=1;" vertex="1" parent="1">
          <mxGeometry x="306.25" y="736" width="120" height="30" as="geometry" />
        </mxCell>
        <mxCell id="1DBd2BPeQqENHKHgenye-48" value="No" style="text;html=1;align=center;verticalAlign=middle;resizable=0;points=[];autosize=1;strokeColor=none;fillColor=none;" vertex="1" parent="1">
          <mxGeometry x="250" y="724" width="40" height="30" as="geometry" />
        </mxCell>
        <mxCell id="1DBd2BPeQqENHKHgenye-55" style="edgeStyle=orthogonalEdgeStyle;rounded=0;orthogonalLoop=1;jettySize=auto;html=1;exitX=0.5;exitY=1;exitDx=0;exitDy=0;" edge="1" parent="1" source="1DBd2BPeQqENHKHgenye-50">
          <mxGeometry relative="1" as="geometry">
            <mxPoint x="200" y="606" as="targetPoint" />
            <Array as="points">
              <mxPoint x="200" y="926" />
              <mxPoint x="100" y="926" />
              <mxPoint x="100" y="606" />
            </Array>
          </mxGeometry>
        </mxCell>
        <mxCell id="1DBd2BPeQqENHKHgenye-50" value="col = col + 1" style="rounded=0;whiteSpace=wrap;html=1;" vertex="1" parent="1">
          <mxGeometry x="140" y="876" width="120" height="30" as="geometry" />
        </mxCell>
        <mxCell id="1DBd2BPeQqENHKHgenye-54" value="Si" style="text;html=1;align=center;verticalAlign=middle;resizable=0;points=[];autosize=1;strokeColor=none;fillColor=none;" vertex="1" parent="1">
          <mxGeometry x="235" y="624" width="30" height="30" as="geometry" />
        </mxCell>
        <mxCell id="1DBd2BPeQqENHKHgenye-57" style="edgeStyle=orthogonalEdgeStyle;rounded=0;orthogonalLoop=1;jettySize=auto;html=1;exitX=0;exitY=0.5;exitDx=0;exitDy=0;entryX=0.626;entryY=0.093;entryDx=0;entryDy=0;entryPerimeter=0;" edge="1" parent="1" source="1DBd2BPeQqENHKHgenye-28" target="fhB60b2QltupWCeUgBXA-1">
          <mxGeometry relative="1" as="geometry" />
        </mxCell>
      </root>
    </mxGraphModel>
  </diagram>
</mxfile>
